<svg viewBox="0 0 1024 1024">
  <path
    d="M722.500267 330.888533l-273.408 273.408-147.729067-147.729066a42.018133 42.018133 0 1 0-59.426133 59.426133l177.425066 177.493333a41.984 41.984 0 0 0 59.426134 0L781.9264 390.314667a42.001067 42.001067 0 0 0-59.392-59.426134h-0.034133zM78.506667 783.496533a508.279467 508.279467 0 0 0 319.0784 226.986667C530.773333 1041.066667 667.886933 1017.924267 783.701333 945.390933a508.279467 508.279467 0 0 0 226.986667-319.0784 508.279467 508.279467 0 0 0-65.058133-386.116266C848.554667 85.367467 681.710933 0.341333 511.214933 0.341333a508.6208 508.6208 0 0 0-270.813866 77.960534A36.864 36.864 0 0 0 279.552 140.629333C484.113067 12.288 755.029333 74.581333 883.268267 279.278933a434.9952 434.9952 0 0 1 55.739733 330.5472 435.029333 435.029333 0 0 1-194.3552 273.134934 435.746133 435.746133 0 0 1-330.581333 55.773866A435.165867 435.165867 0 0 1 140.936533 744.379733a436.770133 436.770133 0 0 1-5.666133-456.055466 36.829867 36.829867 0 0 0-63.317333-37.546667A510.1568 510.1568 0 0 0 78.506667 783.530667v-0.034134z">
  </path>
</svg>